<?xml version="1.0" encoding="utf-8"?>
<!-- Generator: Adobe Illustrator 18.0.0, SVG Export Plug-In . SVG Version: 6.00 Build 0)  -->
<!DOCTYPE svg PUBLIC "-//W3C//DTD SVG 1.1//EN" "http://www.w3.org/Graphics/SVG/1.1/DTD/svg11.dtd">
<svg version="1.1" id="Layer_1" xmlns="http://www.w3.org/2000/svg" xmlns:xlink="http://www.w3.org/1999/xlink" x="0px" y="0px"
	 viewBox="0 0 64 64" enable-background="new 0 0 64 64" xml:space="preserve">
<g>
	<g id="XMLID_9_">
		<g>
			<g>
				<path d="M32,64C14.4,64,0,49.6,0,32S14.4,0,32,0s32,14.4,32,32S49.6,64,32,64z M32,4C16.6,4,4,16.6,4,32s12.6,28,28,28
					s28-12.6,28-28S47.4,4,32,4z"/>
			</g>
		</g>
	</g>
	<g>
		<g>
			<g>
				<polygon points="21.5,46.4 18.5,43.6 29.3,32 18.5,20.4 21.5,17.6 34.7,32 				"/>
			</g>
		</g>
		<g>
			<g>
				<polygon points="33.5,46.4 30.5,43.6 41.3,32 30.5,20.4 33.5,17.6 46.7,32 				"/>
			</g>
		</g>
	</g>
</g>
</svg>
